HIERARCHY
ROOT Hips
{
  OFFSET 78.2175 91.4725 961.623
  CHANNELS 6 Xposition Yposition Zposition Zrotation Xrotation Yrotation
  JOINT Spine
  {
    OFFSET 0 8 0
    CHANNELS 6 Xposition Yposition Zposition Zrotation Xrotation Yrotation
    JOINT Spine1
    {
      OFFSET 0 8 0
      CHANNELS 6 Xposition Yposition Zposition Zrotation Xrotation Yrotation
      JOINT Spine2
      {
        OFFSET 0 8 0
        CHANNELS 6 Xposition Yposition Zposition Zrotation Xrotation Yrotation
        JOINT Spine3
        {
          OFFSET 0 8 0
          CHANNELS 6 Xposition Yposition Zposition Zrotation Xrotation Yrotation
          JOINT Neck
          {
            OFFSET 0 17 0
            CHANNELS 6 Xposition Yposition Zposition Zrotation Xrotation Yrotation
            JOINT Head
            {
              OFFSET 0 10.8 0
              CHANNELS 6 Xposition Yposition Zposition Zrotation Xrotation Yrotation
              End Site
              {
                OFFSET 0 20.25 0
              }
            }
          }
          JOINT LeftShoulder
          {
            OFFSET 5 17 0
            CHANNELS 6 Xposition Yposition Zposition Zrotation Xrotation Yrotation
            JOINT LeftShoulder2
            {
              OFFSET 6.45 0 0
              CHANNELS 6 Xposition Yposition Zposition Zrotation Xrotation Yrotation
              JOINT LeftArm
              {
                OFFSET 6.45 0 0
                CHANNELS 6 Xposition Yposition Zposition Zrotation Xrotation Yrotation
                JOINT LeftForeArm
                {
                  OFFSET 0 -32.4 -2
                  CHANNELS 6 Xposition Yposition Zposition Zrotation Xrotation Yrotation
                  JOINT LeftHand
                  {
                    OFFSET 0 -25.65 2
                    CHANNELS 6 Xposition Yposition Zposition Zrotation Xrotation Yrotation
                    JOINT LeftHandThumb1
                    {
                      OFFSET -0.5 -1.5 2.65
                      CHANNELS 6 Xposition Yposition Zposition Zrotation Xrotation Yrotation
                      JOINT LeftHandThumb2
                      {
                        OFFSET 0 -3.8 3.7
                        CHANNELS 6 Xposition Yposition Zposition Zrotation Xrotation Yrotation
                        JOINT LeftHandThumb3
                        {
                          OFFSET 0 -3 2.7
                          CHANNELS 6 Xposition Yposition Zposition Zrotation Xrotation Yrotation
                          End Site
                          {
                            OFFSET 0 -2.3 1.8
                          }
                        }
                      }
                    }
                    JOINT LeftHandIndex
                    {
                      OFFSET 0 -1.9 1.6
                      CHANNELS 6 Xposition Yposition Zposition Zrotation Xrotation Yrotation
                      JOINT LeftHandIndex1
                      {
                        OFFSET 0 -8.3 1.9
                        CHANNELS 6 Xposition Yposition Zposition Zrotation Xrotation Yrotation
                        JOINT LeftHandIndex2
                        {
                          OFFSET 0 -4.5 0
                          CHANNELS 6 Xposition Yposition Zposition Zrotation Xrotation Yrotation
                          JOINT LeftHandIndex3
                          {
                            OFFSET 0 -3.4 0
                            CHANNELS 6 Xposition Yposition Zposition Zrotation Xrotation Yrotation
                            End Site
                            {
                              OFFSET 0 -2.6 0
                            }
                          }
                        }
                      }
                    }
                    JOINT LeftHandMiddle
                    {
                      OFFSET -0.25 -2.2 0.4
                      CHANNELS 6 Xposition Yposition Zposition Zrotation Xrotation Yrotation
                      JOINT LeftHandMiddle1
                      {
                        OFFSET 0 -8.3 1
                        CHANNELS 6 Xposition Yposition Zposition Zrotation Xrotation Yrotation
                        JOINT LeftHandMiddle2
                        {
                          OFFSET 0 -4.65 0
                          CHANNELS 6 Xposition Yposition Zposition Zrotation Xrotation Yrotation
                          JOINT LeftHandMiddle3
                          {
                            OFFSET 0 -3.3 0
                            CHANNELS 6 Xposition Yposition Zposition Zrotation Xrotation Yrotation
                            End Site
                            {
                              OFFSET 0 -2.7 0
                            }
                          }
                        }
                      }
                    }
                    JOINT LeftHandRing
                    {
                      OFFSET -0.5 -2.15 -0.8
                      CHANNELS 6 Xposition Yposition Zposition Zrotation Xrotation Yrotation
                      JOINT LeftHandRing1
                      {
                        OFFSET 0 -7.75 -0.2
                        CHANNELS 6 Xposition Yposition Zposition Zrotation Xrotation Yrotation
                        JOINT LeftHandRing2
                        {
                          OFFSET 0 -3.8 0
                          CHANNELS 6 Xposition Yposition Zposition Zrotation Xrotation Yrotation
                          JOINT LeftHandRing3
                          {
                            OFFSET 0 -3.4 0
                            CHANNELS 6 Xposition Yposition Zposition Zrotation Xrotation Yrotation
                            End Site
                            {
                              OFFSET 0 -2.6 0
                            }
                          }
                        }
                      }
                    }
                    JOINT LeftHandPinky
                    {
                      OFFSET -0.75 -1.75 -1.85
                      CHANNELS 6 Xposition Yposition Zposition Zrotation Xrotation Yrotation
                      JOINT LeftHandPinky1
                      {
                        OFFSET 0 -7.15 -1
                        CHANNELS 6 Xposition Yposition Zposition Zrotation Xrotation Yrotation
                        JOINT LeftHandPinky2
                        {
                          OFFSET 0 -3 0
                          CHANNELS 6 Xposition Yposition Zposition Zrotation Xrotation Yrotation
                          JOINT LeftHandPinky3
                          {
                            OFFSET 0 -2.35 0
                            CHANNELS 6 Xposition Yposition Zposition Zrotation Xrotation Yrotation
                            End Site
                            {
                              OFFSET 0 -2.1 0
                            }
                          }
                        }
                      }
                    }
                  }
                }
              }
            }
          }
          JOINT RightShoulder
          {
            OFFSET -5 17 0
            CHANNELS 6 Xposition Yposition Zposition Zrotation Xrotation Yrotation
            JOINT RightShoulder2
            {
              OFFSET -6.45 0 0
              CHANNELS 6 Xposition Yposition Zposition Zrotation Xrotation Yrotation
              JOINT RightArm
              {
                OFFSET -6.45 0 0
                CHANNELS 6 Xposition Yposition Zposition Zrotation Xrotation Yrotation
                JOINT RightForeArm
                {
                  OFFSET 0 -32.4 -2
                  CHANNELS 6 Xposition Yposition Zposition Zrotation Xrotation Yrotation
                  JOINT RightHand
                  {
                    OFFSET 0 -25.65 2
                    CHANNELS 6 Xposition Yposition Zposition Zrotation Xrotation Yrotation
                    JOINT RightHandThumb1
                    {
                      OFFSET 0.5 -1.5 2.65
                      CHANNELS 6 Xposition Yposition Zposition Zrotation Xrotation Yrotation
                      JOINT RightHandThumb2
                      {
                        OFFSET 0 -3.8 3.7
                        CHANNELS 6 Xposition Yposition Zposition Zrotation Xrotation Yrotation
                        JOINT RightHandThumb3
                        {
                          OFFSET 0 -3 2.7
                          CHANNELS 6 Xposition Yposition Zposition Zrotation Xrotation Yrotation
                          End Site
                          {
                            OFFSET 0 -2.3 1.8
                          }
                        }
                      }
                    }
                    JOINT RightHandIndex
                    {
                      OFFSET 0 -1.9 1.6
                      CHANNELS 6 Xposition Yposition Zposition Zrotation Xrotation Yrotation
                      JOINT RightHandIndex1
                      {
                        OFFSET 0 -8.3 1.9
                        CHANNELS 6 Xposition Yposition Zposition Zrotation Xrotation Yrotation
                        JOINT RightHandIndex2
                        {
                          OFFSET 0 -4.5 0
                          CHANNELS 6 Xposition Yposition Zposition Zrotation Xrotation Yrotation
                          JOINT RightHandIndex3
                          {
                            OFFSET 0 -3.4 0
                            CHANNELS 6 Xposition Yposition Zposition Zrotation Xrotation Yrotation
                            End Site
                            {
                              OFFSET 0 -2.6 0
                            }
                          }
                        }
                      }
                    }
                    JOINT RightHandMiddle
                    {
                      OFFSET 0.25 -2.2 0.4
                      CHANNELS 6 Xposition Yposition Zposition Zrotation Xrotation Yrotation
                      JOINT RightHandMiddle1
                      {
                        OFFSET 0 -8.3 1
                        CHANNELS 6 Xposition Yposition Zposition Zrotation Xrotation Yrotation
                        JOINT RightHandMiddle2
                        {
                          OFFSET 0 -4.65 0
                          CHANNELS 6 Xposition Yposition Zposition Zrotation Xrotation Yrotation
                          JOINT RightHandMiddle3
                          {
                            OFFSET 0 -3.3 0
                            CHANNELS 6 Xposition Yposition Zposition Zrotation Xrotation Yrotation
                            End Site
                            {
                              OFFSET 0 -2.7 0
                            }
                          }
                        }
                      }
                    }
                    JOINT RightHandRing
                    {
                      OFFSET 0.5 -2.15 -0.8
                      CHANNELS 6 Xposition Yposition Zposition Zrotation Xrotation Yrotation
                      JOINT RightHandRing1
                      {
                        OFFSET 0 -7.75 -0.2
                        CHANNELS 6 Xposition Yposition Zposition Zrotation Xrotation Yrotation
                        JOINT RightHandRing2
                        {
                          OFFSET 0 -3.8 0
                          CHANNELS 6 Xposition Yposition Zposition Zrotation Xrotation Yrotation
                          JOINT RightHandRing3
                          {
                            OFFSET 0 -3.4 0
                            CHANNELS 6 Xposition Yposition Zposition Zrotation Xrotation Yrotation
                            End Site
                            {
                              OFFSET 0 -2.6 0
                            }
                          }
                        }
                      }
                    }
                    JOINT RightHandPinky
                    {
                      OFFSET 0.75 -1.75 -1.85
                      CHANNELS 6 Xposition Yposition Zposition Zrotation Xrotation Yrotation
                      JOINT RightHandPinky1
                      {
                        OFFSET 0 -7.15 -1
                        CHANNELS 6 Xposition Yposition Zposition Zrotation Xrotation Yrotation
                        JOINT RightHandPinky2
                        {
                          OFFSET 0 -3 0
                          CHANNELS 6 Xposition Yposition Zposition Zrotation Xrotation Yrotation
                          JOINT RightHandPinky3
                          {
                            OFFSET 0 -2.35 0
                            CHANNELS 6 Xposition Yposition Zposition Zrotation Xrotation Yrotation
                            End Site
                            {
                              OFFSET 0 -2.1 0
                            }
                          }
                        }
                      }
                    }
                  }
                }
              }
            }
          }
        }
      }
    }
  }
  JOINT LeftUpLeg
  {
    OFFSET 8 0 0
    CHANNELS 6 Xposition Yposition Zposition Zrotation Xrotation Yrotation
    JOINT LeftLeg
    {
      OFFSET 0 -45 -1
      CHANNELS 6 Xposition Yposition Zposition Zrotation Xrotation Yrotation
      JOINT LeftFoot
      {
        OFFSET 0 -41 -2
        CHANNELS 6 Xposition Yposition Zposition Zrotation Xrotation Yrotation
        JOINT LeftToeBase
        {
          OFFSET 0 -7.5 12.5
          CHANNELS 6 Xposition Yposition Zposition Zrotation Xrotation Yrotation
          JOINT LeftFootToe
          {
            OFFSET 0 0 4
            CHANNELS 6 Xposition Yposition Zposition Zrotation Xrotation Yrotation
            End Site
            {
              OFFSET 0 0 0
            }
          }
        }
      }
    }
  }
  JOINT RightUpLeg
  {
    OFFSET -8 0 0
    CHANNELS 6 Xposition Yposition Zposition Zrotation Xrotation Yrotation
    JOINT RightLeg
    {
      OFFSET 0 -45 -1
      CHANNELS 6 Xposition Yposition Zposition Zrotation Xrotation Yrotation
      JOINT RightFoot
      {
        OFFSET 0 -41 -2
        CHANNELS 6 Xposition Yposition Zposition Zrotation Xrotation Yrotation
        JOINT RightToeBase
        {
          OFFSET 0 -7.5 12.5
          CHANNELS 6 Xposition Yposition Zposition Zrotation Xrotation Yrotation
          JOINT RightFootToe
          {
            OFFSET 0 0 4
            CHANNELS 6 Xposition Yposition Zposition Zrotation Xrotation Yrotation
            End Site
            {
              OFFSET 0 0 0
            }
          }
        }
      }
    }
  }
}
MOTION
Frames:	3
Frame Time:	0.0111111
168.516 91.3479 1020.59 -3.69337 -3.84225 50.0151 1.13687e-13 8 1.13687e-13 13.7245 15.6948 -6.85202 0 8 0 2.34898 6.16549 -3.2066 5.68434e-14 8 0 1.12869 3.10253 -1.57297 -1.13687e-13 8 0 1.12731 3.09608 -1.56325 -5.68434e-14 17 -1.13687e-13 -3.1495 -3.20322 11.6137 0 10.8 0 -6.29072 -8.42407 27.154 5 17 -1.13687e-13 -0.408384 1.03085 6.61282 6.45 0 0 1.52972 0.428601 -0.17821 6.45 1.13687e-13 1.13687e-13 -5.93843 -39.2875 -13.6862 5.68434e-14 -32.4 -2 5.5832 -15.3624 13.5902 0 -25.65 2 -9.48159 -8.74466 7.82416 -0.5 -1.5 2.65 -15.9628 -4.05744 -9.60485 -5.68434e-14 -3.8 3.7 -0.400546 13.6561 0.00533184 -5.68434e-14 -3 2.7 -0.0888005 0.878532 0.00854494 -1.13687e-13 -1.9 1.6 -1.76556e-31 -1.59028e-15 -6.36111e-15 -1.13687e-13 -8.3 1.9 -0.177002 3.55574 0.0332759 0 -4.5 0 -30.2186 0.0747147 0.0986677 0 -3.4 0 -22.0087 0.0256095 0.0766231 -0.25 -2.2 0.4 -1.76556e-31 -1.59028e-15 -6.36111e-15 0 -8.3 1 -13.5987 5.87615 1.20512 5.68434e-14 -4.65 0 -3.35917 -0.00522324 -0.0265542 1.13687e-13 -3.3 -1.13687e-13 -3.15537 -0.00357007 -0.0249141 -0.5 -2.15 -0.8 -1.76556e-31 -1.59028e-15 -6.36111e-15 -1.13687e-13 -7.75 -0.2 -31.8764 3.91664 2.5224 0 -3.8 0 -1.35936 -0.0254259 -0.675213 5.68434e-14 -3.4 -1.13687e-13 -0.00397646 -0.422544 -0.536477 -0.75 -1.75 -1.85 -1.76556e-31 -1.59028e-15 -6.36111e-15 -2.27374e-13 -7.15 -1 -36.9149 3.481 2.93461 0 -3 0 -0.360666 0.000152508 -0.374412 2.84217e-14 -2.35 0 -0.208887 0.00418321 -0.293557 -5 17 0 -2.66301 1.26451 -3.08503 -6.45 0 0 -2.52117 -0.408297 0.525893 -6.45 0 0 -9.59207 -32.1031 9.50357 0 -32.4 -2 13.0418 -39.0349 29.4014 1.13687e-13 -25.65 2 -34.3417 -19.8542 33.0185 0.5 -1.5 2.65 54.0638 35.4341 -16.5359 0 -3.8 3.7 -0.5729 -0.0971133 -0.545247 0 -3 2.7 0.438778 37.0821 -0.711004 5.68434e-14 -1.9 1.6 1.57142e-06 -1.66998e-05 -4.53609e-07 -5.68434e-14 -8.3 1.9 13.1017 3.70258 -0.49539 -1.13687e-13 -4.5 0 27.8373 -0.00418916 0.000315065 0 -3.4 5.68434e-14 20.7849 -0.00436077 0.00378446 0.25 -2.2 0.4 1.57142e-06 -1.66998e-05 -4.53609e-07 1.13687e-13 -8.3 1 11.351 3.51909 -0.461272 0 -4.65 0 58.9329 -0.00812704 0.00851558 0 -3.3 0 41.1891 -0.0155652 -0.000541383 0.5 -2.15 -0.8 1.57142e-06 -1.66998e-05 -4.53609e-07 0 -7.75 -0.2 16.3553 5.93992 -1.18877 0 -3.8 -5.68434e-14 66.8493 -0.0510527 0.028698 1.13687e-13 -3.4 5.68434e-14 48.459 -0.137924 0.0568733 0.75 -1.75 -1.85 1.57142e-06 -1.66998e-05 -4.53609e-07 5.68434e-14 -7.15 -1 57.1032 0.932684 -4.51995 2.27374e-13 -3 2.84217e-14 26.684 -0.148119 0.014047 0 -2.35 -2.84217e-14 20.091 -0.441983 0.0325394 8 1.42109e-14 0 28.5939 -22.1782 50.7134 0 -45 -1 0.409944 42.0929 -15.5467 1.13687e-13 -41 -2 8.68516 -29.5785 -4.53591 0 -7.5 12.5 1.13695e-07 2.40482e-06 -2.56235e-06 1.13687e-13 7.10543e-15 4 2.4399 0.207186 15.7415 -8 0 1.13687e-13 0.979567 -10.2807 -26.6389 -5.68434e-14 -45 -1 -0.0202502 19.3061 -3.48684 -2.84217e-14 -41 -2 3.80224 -6.95149 17.5939 1.13687e-13 -7.5 12.5 -0.000181207 -0.0320444 1.74631e-05 5.68434e-14 0 4 3.87124 1.00435 24.4917 
168.513 91.3479 1020.6 -3.69238 -3.83884 50.0113 0 8 1.13687e-13 13.7256 15.6928 -6.85296 1.13687e-13 8 1.13687e-13 2.34456 6.15989 -3.20647 0 8 0 1.12712 3.0998 -1.57187 1.13687e-13 8 -1.13687e-13 1.12473 3.09346 -1.56302 1.13687e-13 17 1.13687e-13 -3.15187 -3.19588 11.6056 -1.13687e-13 10.8 1.13687e-13 -6.3025 -8.4078 27.1341 5 17 1.13687e-13 -0.415049 1.03132 6.60202 6.45 0 -1.13687e-13 1.5296 0.428448 -0.186122 6.45 0 0 -5.87769 -39.1909 -13.3993 -1.13687e-13 -32.4 -2 5.57175 -15.3648 13.8395 0 -25.65 2 -10.9741 -8.79215 7.76939 -0.5 -1.5 2.65 -14.9174 -5.13984 -9.06566 5.68434e-14 -3.8 3.7 -0.354894 13.3539 0.00530773 -1.13687e-13 -3 2.7 -0.179222 2.90174 -0.0340859 1.13687e-13 -1.9 1.6 -5.29669e-31 -4.77083e-15 -6.36111e-15 -1.13687e-13 -8.3 1.9 -0.142076 3.13597 0.0491176 -1.13687e-13 -4.5 1.13687e-13 -25.1707 0.128025 0.171586 -5.68434e-14 -3.4 0 -18.6425 0.0509989 0.13592 -0.25 -2.2 0.4 -5.29669e-31 -4.77083e-15 -6.36111e-15 0 -8.3 1 -11.5034 5.06864 0.956921 0 -4.65 0 -3.35942 0.00740274 -0.00160626 -1.13687e-13 -3.3 1.13687e-13 -3.15562 0.00711061 -0.000873631 -0.5 -2.15 -0.8 -5.29669e-31 -4.77083e-15 -6.36111e-15 -1.13687e-13 -7.75 -0.2 -28.2549 3.94883 2.18624 0 -3.8 1.13687e-13 -1.35938 -0.0270046 -0.674962 -5.68434e-14 -3.4 1.13687e-13 -0.00398171 -0.423072 -0.53652 -0.75 -1.75 -1.85 -5.29669e-31 -4.77083e-15 -6.36111e-15 0 -7.15 -1 -33.3605 3.83881 2.64805 0 -3 1.13687e-13 -0.583512 0.000366994 -0.373488 0 -2.35 1.13687e-13 -0.426376 0.00420376 -0.292883 -5 17 1.13687e-13 -2.64675 1.30868 -3.04099 -6.45 0 1.13687e-13 -2.52149 -0.414147 0.520409 -6.45 -1.13687e-13 -1.13687e-13 -9.67581 -32.0774 9.33355 -1.13687e-13 -32.4 -2 13.1021 -39.0339 29.3909 0 -25.65 2 -34.0264 -19.7046 32.8746 0.5 -1.5 2.65 53.5903 35.6578 -16.2417 0 -3.8 3.7 -0.572957 -0.0971133 -0.545301 -1.13687e-13 -3 2.7 0.437903 37.0821 -0.709539 -5.68434e-14 -1.9 1.6 1.57142e-06 -1.66998e-05 -4.53609e-07 0 -8.3 1.9 13.3341 3.83306 -0.520776 -1.13687e-13 -4.5 0 27.0028 -0.00406012 0.000169609 -1.13687e-13 -3.4 0 20.2789 -0.00454361 0.00382189 0.25 -2.2 0.4 1.57142e-06 -1.66998e-05 -4.53609e-07 5.68434e-14 -8.3 1 11.5733 3.6196 -0.482438 0 -4.65 -5.68434e-14 58.5347 -0.00851148 0.00861205 0 -3.3 -1.13687e-13 40.8611 -0.0158093 -0.000385012 0.5 -2.15 -0.8 1.57142e-06 -1.66998e-05 -4.53609e-07 1.13687e-13 -7.75 -0.2 16.4974 5.98249 -1.20762 1.13687e-13 -3.8 0 66.6668 -0.0512854 0.0281933 0 -3.4 0 48.2724 -0.137303 0.0569653 0.75 -1.75 -1.85 1.57142e-06 -1.66998e-05 -4.53609e-07 5.68434e-14 -7.15 -1 57.0921 1.02053 -4.565 0 -3 2.84217e-14 26.6269 -0.149354 0.01319 0 -2.35 0 20.0561 -0.442051 0.0331162 8 -2.84217e-14 0 28.5967 -22.1769 50.7211 0 -45 -1 0.409922 42.0929 -15.5472 -1.13687e-13 -41 -2 8.6861 -29.5784 -4.535 0 -7.5 12.5 1.13695e-07 2.40551e-06 -2.56235e-06 0 7.10543e-15 4 2.44037 0.207162 15.7415 -8 -1.42109e-14 1.13687e-13 0.978736 -10.2819 -26.6392 0 -45 -1 -0.0201767 19.3037 -3.48807 0 -41 -2 3.80189 -6.95092 17.5901 0 -7.5 12.5 -0.000181207 -0.0320689 1.74631e-05 -1.13687e-13 0 4 3.87125 1.00467 24.4917 
168.509 91.3478 1020.6 -3.69139 -3.83504 50.005 0 8 -1.13687e-13 13.7299 15.6907 -6.85369 0 8 -1.13687e-13 2.33968 6.15499 -3.2063 -1.13687e-13 8 0 1.1259 3.09727 -1.57077 1.7053e-13 8 0 1.12254 3.09109 -1.56278 1.13687e-13 17 -1.13687e-13 -3.15448 -3.18787 11.5968 1.13687e-13 10.8 0 -6.31537 -8.38992 27.1127 5 17 0 -0.420462 1.03221 6.59834 6.45 1.13687e-13 1.13687e-13 1.52949 0.428278 -0.193078 6.45 0 0 -5.83864 -39.091 -13.0889 -5.68434e-14 -32.4 -2 5.54666 -15.3609 14.1232 0 -25.65 2 -12.6156 -8.81616 7.77166 -0.5 -1.5 2.65 -13.7306 -6.27559 -8.39693 -1.13687e-13 -3.8 3.7 -0.304751 13.0794 0.0052844 -5.68434e-14 -3 2.7 -0.306578 5.81615 -0.0850062 0 -1.9 1.6 0 1.59028e-15 -0 0 -8.3 1.9 -0.102008 2.57756 0.062796 0 -4.5 1.13687e-13 -19.8252 0.186878 0.226698 -5.68434e-14 -3.4 0 -14.9189 0.0920851 0.187647 -0.25 -2.2 0.4 0 1.59028e-15 -0 -2.27374e-13 -8.3 1 -9.55492 4.22016 0.736887 1.13687e-13 -4.65 0 -3.27914 0.0238652 0.0212173 0 -3.3 0 -3.07603 0.0216085 0.0210681 -0.5 -2.15 -0.8 0 1.59028e-15 -0 0 -7.75 -0.2 -24.7172 3.87689 1.84019 0 -3.8 -1.13687e-13 -1.3594 -0.0285834 -0.674712 -5.68434e-14 -3.4 0 -0.00398696 -0.4236 -0.536564 -0.75 -1.75 -1.85 0 1.59028e-15 -0 0 -7.15 -1 -29.7512 4.06948 2.32078 -5.68434e-14 -3 1.13687e-13 -0.776428 0.00057889 -0.372565 0 -2.35 1.13687e-13 -0.615232 0.00422434 -0.292209 -5 17 0 -2.63505 1.349 -3.00225 -6.45 0 0 -2.52153 -0.420887 0.519889 -6.45 -1.13687e-13 -1.13687e-13 -9.75258 -32.0537 9.17597 1.13687e-13 -32.4 -2 13.1638 -39.0268 29.3875 1.13687e-13 -25.65 2 -33.7173 -19.5438 32.7099 0.5 -1.5 2.65 53.1005 35.886 -15.9346 0 -3.8 3.7 -0.573014 -0.0971133 -0.545355 0 -3 2.7 0.437027 37.0821 -0.708073 -5.68434e-14 -1.9 1.6 1.57142e-06 -1.66998e-05 -4.53609e-07 0 -8.3 1.9 13.538 3.95305 -0.544498 0 -4.5 -5.68434e-14 26.2445 -0.0038933 2.43966e-05 1.13687e-13 -3.4 0 19.8171 -0.00472295 0.00385956 0.25 -2.2 0.4 1.57142e-06 -1.66998e-05 -4.53609e-07 5.68434e-14 -8.3 1 11.7816 3.71165 -0.502615 -1.13687e-13 -4.65 0 58.2095 -0.00888267 0.00870755 0 -3.3 -5.68434e-14 40.594 -0.0160395 -0.000227541 0.5 -2.15 -0.8 1.57142e-06 -1.66998e-05 -4.53609e-07 -5.68434e-14 -7.75 -0.2 16.6374 6.01433 -1.22494 2.27374e-13 -3.8 5.68434e-14 66.537 -0.0515111 0.0276887 1.13687e-13 -3.4 2.84217e-14 48.1393 -0.136682 0.057061 0.75 -1.75 -1.85 1.57142e-06 -1.66998e-05 -4.53609e-07 0 -7.15 -1 57.0936 1.09446 -4.60504 0 -3 2.84217e-14 26.5542 -0.150585 0.0123325 0 -2.35 5.68434e-14 20.0117 -0.442118 0.0334649 8 0 0 28.5979 -22.1751 50.7276 0 -45 -1 0.409888 42.0928 -15.5477 0 -41 -2 8.68737 -29.5783 -4.53318 0 -7.5 12.5 1.13695e-07 2.40621e-06 -2.56235e-06 1.13687e-13 -7.10543e-15 4 2.4409 0.207137 15.7416 -8 0 0 0.977867 -10.2832 -26.6395 -1.13687e-13 -45 -1 -0.0204894 19.3007 -3.48823 8.52651e-14 -41 -2 3.8017 -6.95022 17.5879 -5.68434e-14 -7.5 12.5 -0.000181207 -0.0320933 1.74631e-05 0 -7.10543e-15 4 3.87126 1.005 24.4917 
